<svg width="1024" height="1024" viewBox="0 0 1024 1024" xmlns="http://www.w3.org/2000/svg">
    <g transform="translate(200,120) scale(0.2,0.2)"
       fill="#ccc" stroke="none">
        <path d="M2222 2579 c-42 -27 -64 -70 -64 -124 0 -54 12 -76 79 -148 139 -151
        244 -357 289 -567 26 -118 26 -362 0 -480 -47 -216 -158 -429 -301 -580 -54
        -57 -65 -79 -65 -132 0 -110 114 -180 215 -132 71 34 226 237 315 416 112 224
        154 406 154 668 0 262 -42 444 -154 668 -85 170 -230 365 -306 413 -43 26
        -119 25 -162 -2z"/>
        <path d="M1285 2534 c-16 -9 -158 -144 -315 -300 l-285 -283 -220 -3 c-209 -3
        -222 -4 -251 -25 -62 -45 -64 -56 -64 -425 0 -377 1 -382 76 -425 37 -21 50
        -23 249 -23 l210 0 280 -281 c154 -154 297 -289 317 -300 21 -10 51 -19 68
        -19 50 0 107 35 130 80 20 38 20 57 20 970 0 913 0 932 -20 970 -35 69 -127
        99 -195 64z"/>
        <path d="M1812 2163 c-44 -21 -74 -66 -79 -117 -6 -51 8 -82 71 -155 60 -71
        103 -154 126 -247 48 -186 0 -386 -126 -535 -77 -89 -90 -137 -58 -205 34 -72
        126 -103 199 -68 87 41 232 270 277 439 17 64 21 109 21 225 0 116 -4 161 -21
        225 -45 167 -190 398 -275 438 -44 21 -92 21 -135 0z"/>
    </g>
    <g transform="translate(484 900) scale(1.4)">
        <rect x="-160" y="-60" width="60" height="60" rx="8" fill="#ccc"/>
        <rect x="-60" y="-60" width="60" height="60" rx="8" fill="#ccc"/>
        <rect x="40" y="-60" width="60" height="60" rx="8" fill="#ccc"/>
        <rect x="140" y="-60" width="60" height="60" rx="8" fill="#ccc"/>
    </g>
</svg>
